# xmcd
#
# Track frame offsets:
#	150
#	9232
#	21090
#	38277
#	49172
#	61670
#	75222
#	83672
#	93227
#	106082
#	115485
#	124675
#	139077
#	152875
#	164417
#	173347
#	185230
#	195467
#	205752
#	217675
#	228020
#	241597
#	255020
#
# Disc length: 3535 seconds
#
# Revision: 1
# Processed by: cddbd v1.5.2PL0 Copyright (c) Steve Scherf et al.
# Submitted via: audiograbber 1.83.01
#
DISCID=000dcd17
DTITLE=Irwin Goodman - Irwinismi ja Ei tippa tapa
DYEAR=1991
DGENRE=Folk
TTITLE0=Työmiehen lauantai
TTITLE1=Tyydyn kohtaloon
TTITLE2=Aurinko tähdet ja kuu
TTITLE3=En kerro kuinka jouduin naimisiin
TTITLE4=Marcello Magaroni
TTITLE5=Kalteritango
TTITLE6=Autolla Kanarian saarelle
TTITLE7=Miehen kylkiluu
TTITLE8=Virkamies Virtanen
TTITLE9=Katkera matka
TTITLE10=Kuin Ferrari
TTITLE11=Salainen agentti
TTITLE12=Rakkaus on rajaton
TTITLE13=Välitunti
TTITLE14=Raha ratkaisee
TTITLE15=Yli vaan
TTITLE16=Sotilas
TTITLE17=Poliisi on pop
TTITLE18=Ei tippa tapa
TTITLE19=Tuoremehu
TTITLE20=Leskenlehti
TTITLE21=Valokuva
TTITLE22=Uusi Paavo
EXTD=
EXTT0=
EXTT1=
EXTT2=
EXTT3=
EXTT4=
EXTT5=
EXTT6=
EXTT7=
EXTT8=
EXTT9=
EXTT10=
EXTT11=
EXTT12=
EXTT13=
EXTT14=
EXTT15=
EXTT16=
EXTT17=
EXTT18=
EXTT19=
EXTT20=
EXTT21=
EXTT22=
PLAYORDER=
